<svg xmlns="http://www.w3.org/2000/svg" viewBox="0 0 18 18">
  <g clip-path="url(#a)">
    <path fill="#29628D" d="M0 0h18v18H0V0Z"/>
    <path fill="#fff" d="m7.203 7.218 3.032-3.032c.226-.226.483-.27.758 0l2.818 2.818a.485.485 0 0 1 0 .691L7.68 13.821c-.22.22-.507.257-.765 0l-2.757-2.758a.548.548 0 0 1 0-.77l3.045-3.075Z"/>
    <path fill="#006491" d="m7.252 7.53 3.173 3.173-2.886 2.886c-.177.177-.36.183-.544 0l-2.641-2.642c-.165-.164-.153-.348 0-.5L7.252 7.53Z"/>
    <path fill="#E31837" d="M10.627 10.513 7.453 7.341l2.886-2.886c.177-.177.36-.184.544 0l2.641 2.641c.166.165.153.349 0 .501l-2.897 2.916Z"/>
    <path fill="#fff" d="M10.608 8.13a.783.783 0 1 0 0-1.566.783.783 0 0 0 0 1.565Zm-2.194 3.356a.783.783 0 1 0 0-1.565.783.783 0 0 0 0 1.565Zm-2.287 0a.783.783 0 1 0 0-1.565.783.783 0 0 0 0 1.565Z"/>
  </g>
  <defs>
    <clipPath id="a">
      <path fill="#fff" d="M0 0h18v18H0z"/>
    </clipPath>
  </defs>
</svg>
