<svg xmlns="http://www.w3.org/2000/svg" viewBox="0 0 18 18">
  <g clip-path="url(#a)">
    <path fill="#053361" d="M0 0h18v18H0V0Z"/>
    <path fill="#fff" d="M10.784 6.5h.113c.28.004.566.092.767.292.123.117.206.266.278.418.114-.251.3-.481.552-.605a1.08 1.08 0 0 1 .4-.105h.109c.088.003.175.014.262.029a.945.945 0 0 1 .672.503c.15.289.179.62.183.94v2.565h-1.59V8.093c-.002-.135-.023-.287-.13-.382-.095-.092-.264-.065-.34.039-.092.12-.095.28-.09.426v2.36h-1.59v-2.4c0-.144-.011-.305-.116-.413-.089-.098-.257-.087-.342.011a.496.496 0 0 0-.104.32v2.483H8.23V6.618h1.547c.014.202.022.404.041.606.093-.178.2-.355.357-.483a1.03 1.03 0 0 1 .61-.241Zm-5.835.133a2.81 2.81 0 0 1 1.421-.071c.385.076.766.268.988.6.182.264.238.589.25.902-.475 0-.951 0-1.426-.002-.018-.152-.028-.321-.136-.442-.106-.107-.277-.105-.41-.055-.13.06-.197.199-.224.332-.062.286-.047.58-.046.87.006.206.01.417.084.612a.354.354 0 0 0 .209.222c.113.037.253.031.343-.054.12-.121.133-.301.147-.462h1.458c.001.34-.093.691-.316.954-.257.32-.655.492-1.051.564-.389.058-.79.05-1.171-.05a1.752 1.752 0 0 1-.707-.369 1.81 1.81 0 0 1-.545-.987c-.064-.28-.067-.57-.067-.857.017-.363.11-.73.315-1.036a1.69 1.69 0 0 1 .884-.67Zm3.267 5.059h3.076v.899H8.216v-.9Zm3.953 0h3.078v.899h-3.078v-.9Z"/>
  </g>
  <defs>
    <clipPath id="a">
      <path fill="#fff" d="M0 0h18v18H0z"/>
    </clipPath>
  </defs>
</svg>
