<svg xmlns="http://www.w3.org/2000/svg" viewBox="0 0 18 18">
  <g clip-path="url(#a)">
    <path d="M0 0h18v18H0V0Z"/>
    <path fill="#fff" d="M7.513 7.414h-1.06L5.496 9.27c-.013.026-.072.121-.072.121l-.027.04a.822.822 0 1 1-.678-1.282.82.82 0 0 1 .634.299l.42-.837A1.721 1.721 0 0 0 3 8.969c.001.948.772 1.72 1.72 1.72a1.713 1.713 0 0 0 1.495-.873l.723-1.389.797 1.631L8.238 9l-.725-1.586Z"/>
    <path fill="#A2A9AD" d="M10.332 10.67 8.845 7.413H7.788l1.486 3.255h1.058Z"/>
    <path fill="#fff" d="M10.457 7.25c-.463 0-.883.186-1.19.488l.428.935a.812.812 0 0 1 1.388-.24l.415-.826a1.692 1.692 0 0 0-1.041-.357Zm2.823 0c-.6 0-1.13.31-1.437.779a3.45 3.45 0 0 0-.283.54 6.872 6.872 0 0 1-.42.832.808.808 0 0 1-.966.321l.416.91.01.023a1.69 1.69 0 0 0 1.254-.728A1.719 1.719 0 1 0 13.28 7.25Zm0 2.59a.872.872 0 0 1 0-1.742.872.872 0 0 1 0 1.743Z"/>
  </g>
  <defs>
    <clipPath id="a">
      <path fill="#fff" d="M0 0h18v18H0z"/>
    </clipPath>
  </defs>
</svg>
