<svg xmlns="http://www.w3.org/2000/svg" viewBox="0 0 18 18">
  <g clip-path="url(#a)">
    <path fill="#fff" d="M0 0h18v18H0V0Z"/>
    <path fill="#E41D37" d="M14.462 11.705 12.168 13.5l-1.83-1.433V9.96l2.787-2.183 1.318 1.033a1.26 1.26 0 0 1-2.347.071v2.034c0 .64.519 1.159 1.159 1.159.451 0 .931-.36 1.092-.484l.115.114Z"/>
    <path fill="#00539B" d="M12.096 5.488v2.61L10.34 9.474V6.486a.766.766 0 0 0-.767-.766v7.697H7.814V6.486a.765.765 0 0 0-.765-.766v7.697H5.294v-6.76a.766.766 0 0 0-.766-.765.733.733 0 0 0-.414.121L4 5.9l1.787-1.4 1.262.988L8.31 4.5l1.262.988 1.262-.988 1.262.988Z"/>
  </g>
  <defs>
    <clipPath id="a">
      <path fill="#fff" d="M0 0h18v18H0z"/>
    </clipPath>
  </defs>
</svg>
