<svg xmlns="http://www.w3.org/2000/svg" viewBox="0 0 18 18">
  <g clip-path="url(#a)">
    <path d="M0 0h18v18H0V0Z"/>
    <path fill="#fff" d="M7.756 3.068A3.34 3.34 0 0 1 8.162 3l.626 3.583c-.135.017-.27.034-.406.068l-.626-3.583Zm-.152 3.955a2 2 0 0 1 .423-.237l-1.811-3.16c-.136.084-.288.151-.423.236l1.81 3.16ZM6.57 9c0-.135.017-.27.034-.389H3.017C3 8.73 3 8.848 3 8.983c0 .118 0 .237.017.355h3.588c-.017-.118-.034-.22-.034-.338Zm4.875 0a2.425 2.425 0 0 1-2.438 2.434 2.45 2.45 0 0 1-2.403-2.028L3.22 10.639c.068.27.17.524.27.761l3.352-1.234L4.117 12.5c.17.236.372.473.576.692l2.555-2.163-1.675 2.924c.27.186.541.355.846.49l1.574-2.755-.542 3.127c.339.085.677.152 1.033.186l.508-2.924L9.499 15a7.63 7.63 0 0 0 1.083-.186l-.473-2.704 1.37 2.383a5.68 5.68 0 0 0 1.067-.625l-1.253-2.198 1.93 1.623c.304-.304.575-.642.812-.997l-1.726-1.454 2.099.778c.203-.406.338-.829.44-1.285l-1.845-.676h1.963A9.01 9.01 0 0 0 15 8.966c0-.27-.017-.54-.05-.794h-3.64c.085.27.136.54.136.828Zm-4.807-.558c.05-.22.135-.422.237-.608L3.49 6.6a8.772 8.772 0 0 0-.22.608l3.368 1.234Zm6.905-3.43-2.758 2.315c.067.067.135.152.186.22L13.73 5.23a2.144 2.144 0 0 0-.187-.22Zm-1.37-1.167c-.102-.068-.204-.118-.288-.169l-1.811 3.127c.101.05.203.101.304.169l1.795-3.127ZM7.367 7.208 4.59 4.876a4.643 4.643 0 0 0-.372.44l2.758 2.332a2.41 2.41 0 0 1 .39-.44Zm1.895-.625c.119.017.237.034.356.068l.626-3.583c-.118-.017-.237-.051-.355-.068l-.627 3.583Z"/>
  </g>
  <defs>
    <clipPath id="a">
      <path fill="#fff" d="M0 0h18v18H0z"/>
    </clipPath>
  </defs>
</svg>
